<?xml version="1.0" standalone="no"?>
<!DOCTYPE svg PUBLIC "-//W3C//DTD SVG 20010904//EN"
 "http://www.w3.org/TR/2001/REC-SVG-20010904/DTD/svg10.dtd">
<svg version="1.0" xmlns="http://www.w3.org/2000/svg"
 width="736.000000pt" height="490.000000pt" viewBox="0 0 736.000000 490.000000"
 preserveAspectRatio="xMidYMid meet">

<g transform="translate(0.000000,490.000000) scale(0.100000,-0.100000)"
fill="#000000" stroke="none">
<path d="M2864 3761 c-44 -20 -81 -60 -90 -98 -5 -18 -13 -23 -40 -23 -45 0
-85 -36 -89 -80 -2 -19 -3 -38 -4 -42 -1 -5 -39 -8 -84 -8 -68 0 -92 -4 -128
-23 -121 -64 -118 -247 4 -306 33 -16 63 -21 125 -21 78 0 82 -1 83 -22 1 -43
8 -61 29 -82 17 -17 37 -22 117 -26 l96 -5 2 -95 c3 -148 -3 -135 68 -161 l64
-23 -72 -83 c-40 -46 -93 -124 -119 -173 l-47 -90 -214 0 -214 0 -3 58 -3 57
-74 3 c-63 3 -74 6 -78 22 -7 26 -43 26 -50 0 -4 -16 -14 -20 -44 -20 -28 0
-41 5 -49 20 -6 11 -18 20 -26 20 -9 0 -18 -9 -21 -20 -5 -18 -14 -20 -73 -20
-45 0 -71 -5 -79 -14 -8 -9 -10 -140 -9 -467 l3 -454 76 -3 c67 -2 78 -5 82
-22 7 -26 33 -26 47 0 15 29 85 29 93 0 7 -26 43 -26 50 0 4 16 15 19 78 22
l74 3 3 58 3 57 214 0 215 0 31 -62 c133 -264 364 -442 652 -503 88 -19 286
-19 375 0 273 57 507 234 640 484 l43 81 244 0 244 0 3 -57 3 -58 72 -3 c60
-2 75 -6 83 -22 14 -26 40 -26 47 0 8 29 78 29 93 0 14 -26 40 -26 47 0 4 17
15 20 82 22 l76 3 3 454 c1 327 -1 458 -9 467 -8 9 -34 14 -80 14 -55 0 -69 3
-69 15 0 9 -7 18 -15 21 -18 7 -47 -14 -39 -27 3 -5 -15 -9 -39 -9 -36 0 -46
4 -50 20 -7 26 -43 26 -50 0 -4 -16 -15 -19 -78 -22 l-74 -3 -3 -57 -3 -58
-244 0 -245 0 -31 63 c-40 79 -77 133 -149 217 l-58 66 64 23 c35 13 64 28 65
34 1 26 5 105 7 165 l2 62 89 0 c74 0 92 3 115 21 l26 20 0 264 0 264 -26 20
c-15 12 -41 21 -60 21 -25 0 -34 5 -40 23 -13 41 -47 79 -88 98 -39 18 -81 19
-786 19 -704 0 -747 -1 -786 -19z m1560 -62 c14 -11 31 -29 36 -40 11 -19 -3
-19 -809 -19 l-821 0 11 23 c6 13 23 31 37 40 25 15 96 16 773 17 741 0 747 0
773 -21z m170 -135 c9 -23 7 -447 -2 -462 -7 -10 -203 -12 -948 -10 l-939 3
-3 230 c-1 126 0 235 2 242 4 10 194 13 945 13 847 0 939 -2 945 -16z m-2104
-229 l0 -116 -29 16 c-41 21 -61 53 -61 98 0 49 13 73 53 97 18 11 33 20 35
20 1 0 2 -52 2 -115z m150 0 l0 -115 -45 0 -45 0 0 115 0 115 45 0 45 0 0
-115z m1710 -312 c1 -15 2 -158 1 -175 -1 -11 -25 -24 -81 -43 -58 -19 -80
-31 -80 -44 0 -9 25 -41 56 -71 118 -116 193 -236 241 -388 26 -81 28 -99 28
-257 0 -166 -1 -172 -33 -264 -49 -141 -112 -241 -217 -346 -107 -107 -209
-170 -345 -216 -83 -28 -112 -33 -231 -37 -156 -5 -252 10 -367 57 -329 136
-542 450 -544 801 -1 252 75 441 251 623 68 70 83 91 75 104 -5 9 -43 28 -84
42 l-75 26 -3 98 -3 97 706 0 c388 0 705 -3 705 -7z m-2360 -973 l0 -410 -45
0 -45 0 0 410 0 410 45 0 45 0 0 -410z m140 0 l0 -410 -35 0 -35 0 0 410 0
410 35 0 35 0 0 -410z m160 0 l0 -410 -45 0 -45 0 0 410 0 410 45 0 45 0 0
-410z m2870 0 l0 -410 -45 0 -45 0 0 410 0 410 45 0 45 0 0 -410z m140 0 l0
-410 -35 0 -35 0 0 410 0 410 35 0 35 0 0 -410z m160 0 l0 -410 -45 0 -45 0 0
410 0 410 45 0 45 0 0 -410z m-2721 220 c-36 -140 -33 -336 6 -467 l13 -43
-204 0 -204 0 0 290 0 290 203 0 203 0 -17 -70z m2271 -220 l0 -290 -236 0
c-221 0 -236 1 -229 18 14 34 25 88 35 180 12 99 2 231 -23 330 l-14 52 233 0
234 0 0 -290z"/>
<path d="M3521 2805 c-164 -31 -296 -100 -411 -215 -88 -87 -140 -168 -180
-279 -154 -423 90 -886 529 -1003 90 -24 255 -28 346 -9 296 64 532 300 596
596 20 90 15 255 -10 348 -56 211 -212 401 -409 497 -136 66 -320 92 -461 65z
m361 -90 c252 -87 438 -322 467 -587 35 -327 -152 -623 -471 -745 -68 -26 -83
-27 -228 -28 -143 0 -160 2 -228 27 -109 39 -177 84 -267 173 -89 89 -135 159
-170 262 -137 395 87 807 500 919 34 9 92 12 185 10 115 -3 147 -8 212 -31z"/>
<path d="M3555 2251 c-80 -37 -125 -111 -125 -203 1 -126 94 -218 220 -218
125 0 219 93 220 218 0 128 -92 222 -220 222 -32 0 -71 -8 -95 -19z m158 -54
l28 -12 -114 -114 -114 -113 -12 32 c-27 79 -2 150 68 197 38 26 98 30 144 10z
m94 -166 c-12 -104 -128 -172 -222 -129 l-26 12 113 113 113 114 14 -33 c7
-19 11 -51 8 -77z"/>
</g>
</svg>
